<?xml version="1.0" encoding="utf-8"?>
<!-- Generator: Adobe Illustrator 16.0.0, SVG Export Plug-In . SVG Version: 6.00 Build 0)  -->
<!DOCTYPE svg PUBLIC "-//W3C//DTD SVG 1.1//EN" "http://www.w3.org/Graphics/SVG/1.1/DTD/svg11.dtd">
<svg version="1.1" id="Layer_1" xmlns="http://www.w3.org/2000/svg" xmlns:xlink="http://www.w3.org/1999/xlink" x="0px" y="0px"
	 width="550px" height="117.346px" viewBox="0 0 550 117.346" enable-background="new 0 0 550 117.346" xml:space="preserve">
<path fill-rule="evenodd" clip-rule="evenodd" fill="#003964" d="M163.447,71.243c3.424-2.657,3.92-1.135,6.858,1.771
	c1.493,1.471,5.475,3.979,2.84,6.161c-5.433,4.49-10.317,6.528-17.359,6.528c-15.77,0-26.934-11.753-26.095-27.313
	c0.375-7.006,3.089-13.606,8.529-18.19c4.996-4.209,11.193-6.074,17.687-5.953c3.306,0.064,6.249,0.55,9.316,1.779
	c1.983,0.792,3.92,1.707,5.623,3.012c3.456,2.64,1.868,4.207-0.836,6.913c-0.607,0.607-1.189,1.233-1.789,1.845
	c-1.347,1.376-2.307,2.371-4.172,1.095c-3.528-2.413-8.001-3.713-12.225-2.62c-13.589,3.518-12.864,27.72,3.765,27.72
	C158.353,73.991,161.269,72.936,163.447,71.243L163.447,71.243z M541.438,84.583c-2.271,0-4.135-1.857-4.135-4.132V26.803
	c0-2.272,1.863-4.135,4.135-4.135h4.427c2.272,0,4.135,1.863,4.135,4.135V80.45c0,2.275-1.862,4.132-4.135,4.132H541.438
	L541.438,84.583z M518.107,78.417c-4.799,4.579-9.432,6.959-16.266,6.959c-13.855,0-20.489-11.447-20.489-24.251v-21.79
	c0-2.272,1.86-4.138,4.132-4.138h4.429c2.274,0,4.138,1.865,4.138,4.138v21.696c0,7.167,3.854,12.735,11.444,12.735
	c7.429,0,12.148-6.308,12.148-13.379l0.008-7.791c-0.074-0.306-0.106-0.602-0.106-0.916V39.336c0-2.275,1.86-4.138,4.135-4.138
	h4.424c2.274,0,4.138,1.86,4.138,4.138v41.146c0,2.255-1.849,4.1-4.104,4.1h-3.745c-2.287,0-3.91-1.882-4.103-4.073L518.107,78.417
	L518.107,78.417z M464.882,35.327h8.638c2.279,0,4.103,1.91,4.103,4.174v2.864c0,2.265-1.82,4.174-4.103,4.174h-8.638V80.45
	c0,2.277-1.86,4.132-4.135,4.132h-4.426c-2.272,0-4.138-1.857-4.138-4.132V33.602c0-10.246,5.748-18.296,16.206-19.275
	c0.287-0.027,0.57-0.044,0.85-0.06c0.614-0.057,1.245-0.039,1.853-0.02h4.031c2.284,0,4.103,1.912,4.103,4.177v2.601
	c0,2.267-1.818,4.177-4.103,4.177l-2.953-0.005c-0.099,0.015-0.19,0.017-0.289,0.017c-4.941,0-6.999,3.822-6.999,8.388V35.327
	L464.882,35.327z M434.03,35.297h9.447c2.257,0,4.1,1.848,4.1,4.105v2.808c0,2.255-1.843,4.1-4.1,4.1h-9.447v20.751
	c0,3.992,1.915,6.294,5.963,6.294h1.917c2.261,0,4.105,1.845,4.105,4.105v2.808c0,2.257-1.848,4.103-4.105,4.103h-3.646
	c-0.695,0.015-1.339-0.013-2.025-0.044c-10.229-0.629-14.805-7.261-14.805-17.265c0-13.409,0-26.817,0-40.226
	c0-2.257,1.848-4.103,4.103-4.103h4.392c2.26,0,4.103,1.846,4.103,4.103V35.297L434.03,35.297z M297.399,35.297h9.449
	c2.257,0,4.1,1.848,4.1,4.105v2.808c0,2.255-1.843,4.1-4.1,4.1h-9.449v20.751c0,3.992,1.917,6.299,5.965,6.299h1.917
	c2.261,0,4.108,1.835,4.108,4.1v2.808c0,2.26-1.854,4.103-4.108,4.103h-2.842c-11.134,0-17.635-4.767-17.635-17.31
	c0-13.409,0-26.817,0-40.226c0-2.257,1.851-4.105,4.107-4.105h4.387c2.258,0,4.101,1.848,4.101,4.105V35.297L297.399,35.297z
	 M241.963,41.354c4.508-4.276,9.39-6.945,15.765-6.945c13.797,0,20.985,11.31,20.985,24.247V80.45c0,2.275-1.864,4.132-4.135,4.132
	h-4.429c-2.274,0-4.132-1.86-4.132-4.132V58.752c0-7.172-3.863-12.735-11.455-12.735c-7.413,0-12.143,6.289-12.143,13.33v21.136
	c0,2.255-1.849,4.1-4.105,4.1h-4.392c-2.26,0-4.103-1.843-4.103-4.1c0-13.165,0-26.329,0-39.491V39.2
	c0-2.255,1.848-4.098,4.103-4.098h3.745c2.284,0,3.908,1.882,4.103,4.071L241.963,41.354L241.963,41.354z M378.802,41.356
	c4.505-4.278,9.385-6.948,15.763-6.948c13.798,0,20.985,11.307,20.985,24.247V80.45c0,2.272-1.863,4.132-4.136,4.132h-4.428
	c-2.272,0-4.133-1.86-4.133-4.132V58.752c0-7.169-3.861-12.735-11.452-12.735c-7.414,0-12.146,6.284-12.146,13.33v21.136
	c0,2.252-1.846,4.1-4.098,4.1h-4.396c-2.255,0-4.104-1.848-4.104-4.1V39.2c0-2.252,1.851-4.098,4.104-4.098h3.747
	c2.287,0,3.903,1.88,4.098,4.071L378.802,41.356L378.802,41.356z M200.089,34.209c-14.99,0-25.532,10.88-25.532,25.734
	c0,15.057,10.456,25.727,25.631,25.727c15.153,0,25.732-10.655,25.732-25.727C225.92,45.052,215.024,34.209,200.089,34.209
	L200.089,34.209z M324.631,64.51c1.113,6.905,7.69,9.75,14.172,9.75c3.049,0,6.572-0.78,9.338-2.085
	c0.474-0.222,0.92-0.422,1.374-0.683c1.532-0.886,2.94-1.411,4.312-0.007c0.74,0.757,1.482,1.51,2.237,2.255
	c0.713,0.708,1.357,1.416,1.983,2.201c2.078,2.62,0.62,3.242-1.731,4.828c-5.045,3.412-11.659,5.102-17.714,5.102
	c-16.28,0-27.113-9.849-27.113-26.324c0-15.536,10.767-25.828,26.225-25.828c15.829,0,24.871,9.291,25.157,25.088
	c0.077,4.322,0.271,5.704-4.24,5.704H324.631L324.631,64.51z M200.188,45.817c7.734,0,12.938,6.75,12.938,14.126
	c0,7.779-4.773,14.021-12.938,14.021c-8.166,0-12.938-6.245-12.938-14.021C187.25,52.271,192.107,45.817,200.188,45.817
	L200.188,45.817z M324.886,53.892h25.524c-0.972-6.348-6.237-8.862-12.299-8.862C331.956,45.03,326.758,47.892,324.886,53.892z"/>
<g>
	<path fill-rule="evenodd" clip-rule="evenodd" fill="#F15750" d="M58.693,117.346c-19.552,0-37.71-9.661-48.649-25.863
		C8.16,88.695,7.04,86.374,7.04,82.937c0-7.394,5.993-13.372,13.376-13.372c4.132,0,7.974,1.944,10.495,5.203
		c0.333,0.429,0.622,0.854,0.896,1.317c5.909,9.111,15.99,14.61,26.887,14.61c10.9,0,20.976-5.5,26.887-14.61
		c0.274-0.464,0.548-0.888,0.903-1.317c2.517-3.259,6.365-5.203,10.49-5.203c7.382,0,13.375,5.978,13.375,13.372
		c0,3.437-1.12,5.758-3.008,8.546C96.403,107.685,78.235,117.346,58.693,117.346z"/>
	<path fill-rule="evenodd" clip-rule="evenodd" fill="#4FB5E1" d="M58.693,0c19.542,0,37.71,9.671,48.646,25.865
		c1.888,2.808,3.008,5.117,3.008,8.563c0,7.381-5.993,13.364-13.375,13.364c-4.125,0-7.974-1.944-10.49-5.218
		c-0.355-0.419-0.629-0.839-0.903-1.295c-5.911-9.124-15.987-14.63-26.887-14.63c-6.116,0-11.98,1.737-16.979,4.87
		c-3.916,2.445-8.297,3.693-10.89,7.69c-0.284,0.461-0.57,0.883-0.893,1.308c-2.524,3.259-5.383,7.275-9.516,7.275
		c-7.384,0-13.376-5.983-13.376-13.364c0-3.447,1.12-5.756,3.005-8.563C20.983,9.671,39.142,0,58.693,0z"/>
	<path fill-rule="evenodd" clip-rule="evenodd" fill="#FDEC04" d="M3.391,39.022C8.65,24.225,19.493,12.36,33.369,5.736
		c3.399-1.613,12.089,23.783,11.872,23.879c-7.826,3.614-13.835,10.197-16.734,18.333c-3.642,10.273-1.826,21.617,4.781,30.237
		l0.22,0.276L12.168,94.429l-0.678-0.905C-0.105,77.791-3.152,57.457,3.391,39.022z"/>
	<path fill-rule="evenodd" clip-rule="evenodd" fill="#CE4639" d="M22.762,73.039c7.384,0,13.367,5.993,13.367,13.374
		c0,7.387-5.973,13.354-13.367,13.354c-4.625,0-8.808-2.415-11.255-6.301c-1.342-2.122-2.122-4.52-2.102-7.071
		C9.447,79.032,15.371,73.039,22.762,73.039z"/>
	<path fill-rule="evenodd" clip-rule="evenodd" fill="#0082B7" d="M39.142,4.426c7.364,0,13.325,5.958,13.325,13.325
		c0,7.374-5.951,13.337-13.325,13.337c-4.626,0-8.798-2.408-11.235-6.286c-1.345-2.131-2.119-4.52-2.097-7.051
		C25.846,10.396,31.767,4.426,39.142,4.426z"/>
</g>
</svg>
